<svg version="1.2" xmlns="http://www.w3.org/2000/svg" viewBox="0 0 1528 411" width="1528" height="411">
	<title>Turkish_Airlines_logo_2019_compact-svg</title>
	<style>
		.s0 { fill: #ffffff } 
		.s1 { fill: #c70a0c } 
	</style>
	<g id="layer1">
		<g id="g34">
			<path id="path110" fill-rule="evenodd" class="s0" d="m1474.5 181.4v-67.9h-67.9v67.9h-37.3v-160.9h37.3v63.8h67.9v-63.8h37.4v160.9zm-764-160.9v99.8c0 10.2 2.7 18.3 7.5 24.4 4.8 6.1 12.9 9.5 23.8 9.5 10.8 0 19-3.4 23.7-9.5 4.8-6.1 7.5-14.2 7.5-24.4v-99.8h34.6v100.5c0 10.8-1.3 20.3-4.7 28.5-2.7 7.5-7.5 14.2-12.9 19-5.5 4.8-12.2 8.8-20.4 10.9-8.1 2-17.6 3.4-27.8 3.4-10.9 0-20.4-1.4-28.6-3.4-8.1-2.1-15.6-6.1-21.7-10.9-5.4-4.8-10.2-11.5-13.6-19-3.4-7.5-4.7-17.7-4.7-28.5v-100.5zm-144.7 160.9v-131.1h-43.4v-29.8h124.9v14.2c0 8.9-6.8 15.6-15.6 15.6h-28.5v131.1zm597.6-160.9h37.3v160.9h-37.3zm-123.6 160.9h-37.4v-160.9h37.4v70.6l1.3-1.3 51.6-69.3h38.7l-55.6 70.6-0.7 1.4 0.7 1.3 67.9 87h-29.9c-10.2 0-19-4.8-25.1-12.3l-47.6-61.1-1.3-1.3zm-85.6 0c-10.9 0-21.7-6.2-27.2-15l-29.2-47.5h-18.3v63.1h-37.3v-161.6h66.5c17 0 30.6 4.8 39.4 12.9 9.5 8.9 14.3 21.1 14.3 35.3q0 11.2-6.2 22.4-6.1 11.3-20.3 18.4l-2.1 0.7 45.5 70.6h-25.1zm-53-87.6c7.5 0 13.6-2.1 17.7-6.1q6.1-6.1 6.1-16.3c0-6.8-2-12.2-5.4-16.3-4.1-4.1-9.5-6.1-17.7-6.1h-21.7v44.8zm330 80.8v-30.6c11.6 5.5 27.2 10.9 42.8 10.9 18.3 0 27.2-6.1 27.2-18.3 0-14.3-12.3-15.7-37.4-26.5-17-7.5-32.6-19-32.6-46.2 0-31.2 23.8-46.2 57-46.2 17.7 0 32.6 4.1 40.8 7.5v29.9c-8.2-4.1-23.1-8.8-38.7-8.8-16.3 0-23.8 6.1-23.8 16.2 0 10.9 9.5 14.3 25.8 20.4 21.1 10.9 46.2 15.6 46.2 51.6 0 31.3-25.1 48.2-58.4 48.2-19.7 0.7-36-2.7-48.9-8.1zm58.4 216.6v-160.9h100.5v14.2c0 8.9-6.8 15.7-15.6 15.7h-48.2v34.6h54.3v27.1h-54.3v39.4h63.8v29.9zm-368 0v-160.9h18.3c10.9 0 19 8.8 19 19v112.7h59.1v29.2zm-230.2 0v-160.9h37.3v160.9zm182.7 0c-10.9 0-21.7-6.1-27.2-14.9l-29.2-47.6h-18.3v63.2h-37.3v-161.6h66.5c17 0 30.6 4.7 39.4 12.9 9.5 8.8 14.3 21 14.3 35.3 0 7.5-2.1 14.9-6.2 23.1q-6.1 11.2-20.3 18.3l-2.1 0.7 45.5 70.6zm-74-87.6h21.7c8.2 0 13.6-2 17.7-6.1q6.1-6.1 6.1-16.3c0-6.8-2-12.2-5.4-16.3-4.1-4.1-9.5-6.1-17.7-6.1h-21.7zm-131.1 87.6h-40l-9.5-29.9h-65.2l-6.1 19c-2.1 6.8-8.2 10.9-15 10.9h-26.5l60.5-160.9h42.8zm-59.1-58.4l-14.3-40.8c-2.7-9.5-6.1-18.3-8.1-25.8h-0.7c-2 6.8-5.4 17-8.8 25.8l-14.3 40.8zm810.1 51.6v-30.6c11.6 5.4 27.2 10.9 42.8 10.9 18.3 0 27.1-6.1 27.1-18.4 0-14.2-12.2-15.6-37.3-26.4-17-7.5-32.6-19.1-32.6-46.2 0-31.3 23.8-46.2 57-46.2 17.7 0 32.6 4.1 40.8 7.5v29.9c-8.2-4.1-23.1-8.9-38.7-8.9-16.3 0-23.8 6.1-23.8 16.3 0 10.9 9.5 14.3 25.8 20.4 21.1 10.9 46.2 15.6 46.2 51.6 0 31.2-25.1 48.2-58.4 48.2-19.7 0.7-36-2.7-48.9-8.1zm-306.2-154.2h23c10.9 0 21.1 5.5 27.2 15l44.8 71.9c4.8 8.2 10.9 18.4 14.3 25.8h0.7c-0.7-7.4-0.7-16.9-0.7-24.4v-88.3h32.6v161h-40.8l-54.3-87c-4.7-8.1-10.2-17.6-14.2-25.1h-0.7c0 6.8 0.7 15 0.7 23.1v89h-32.6zm-71.3 0h37.3v160.9h-37.3z"/>
			<g id="g32">
				<path id="white" fill-rule="evenodd" class="s0" d="m227.1 1.5c103.2 10.8 184 97.7 184 204.3 0 113.4-91.6 205.1-205 205.1-113.4 0-205.8-91.7-205.8-205.1 0-113.4 91.7-205.7 205.8-205.7 6.7 0 14.2 0.7 21 1.4zm10.9 395.2c105.2-17.7 176.5-117.5 158.9-223.4-15-87.6-86.3-151.5-170.5-160.3-17-2-34.6-1.4-52.3 1.4-21 3.4-40.7 10.1-58.4 19.6 92.4 32 142.6 80.2 146 129.1 2.1 30.5-12.2 52.3-31.2 69.9l131.7-8.8c3.4 0 4.8 4.1 0.7 5.4l-314.4 89.6c31.9 44.2 81.5 73.4 136.5 78.8 17.7 2.1 35.3 2.1 53-1.3zm-86.3-186.8c17-64.5-2.7-132.4-49.5-168.4-63.9 40.8-101.2 116.8-87.6 196.3 4 26.4 13.5 50.2 27.1 71.3 50.3-13.6 94.4-40.1 110-99.2z"/>
				<path id="red" class="s1" d="m238 396.7c105.2-17.7 176.5-117.5 158.9-223.4-15-87.6-86.3-151.5-170.5-160.3-17-2-34.6-1.4-52.3 1.4-21 3.4-40.7 10.1-58.4 19.6 92.4 32 142.6 80.2 146 129.1 2.1 30.5-12.2 52.3-31.2 69.9l131.7-8.8c3.4 0 4.8 4.1 0.7 5.4l-314.4 89.6c31.9 44.2 81.5 73.4 136.5 78.8 17.7 2.1 35.3 2.1 53-1.3zm-86.3-186.8c17-64.5-2.7-132.4-49.5-168.4-63.9 40.8-101.2 116.8-87.6 196.3 4 26.4 13.5 50.2 27.1 71.3 50.3-13.6 94.4-40.1 110-99.2z"/>
			</g>
		</g>
	</g>
</svg>